<?xml version="1.0" encoding="UTF-8" standalone="no"?>
<!-- Created with Inkscape (http://www.inkscape.org/) -->

<svg
   xmlns:dc="http://purl.org/dc/elements/1.1/"
   xmlns:cc="http://creativecommons.org/ns#"
   xmlns:rdf="http://www.w3.org/1999/02/22-rdf-syntax-ns#"
   xmlns:svg="http://www.w3.org/2000/svg"
   xmlns="http://www.w3.org/2000/svg"
   xmlns:sodipodi="http://sodipodi.sourceforge.net/DTD/sodipodi-0.dtd"
   xmlns:inkscape="http://www.inkscape.org/namespaces/inkscape"
   width="386"
   height="238"
   viewBox="0 0 102.12916 62.970835"
   version="1.1"
   id="svg8"
   inkscape:version="0.92.3 (2405546, 2018-03-11)"
   sodipodi:docname="main_logo.svg">
  <defs
     id="defs2" />
  <sodipodi:namedview
     id="base"
     pagecolor="#ffffff"
     bordercolor="#666666"
     borderopacity="1.0"
     inkscape:pageopacity="0.0"
     inkscape:pageshadow="2"
     inkscape:zoom="2.4570475"
     inkscape:cx="188.54583"
     inkscape:cy="112.02649"
     inkscape:document-units="px"
     inkscape:current-layer="text1087"
     showgrid="false"
     units="px"
     inkscape:showpageshadow="false"
     inkscape:window-width="2552"
     inkscape:window-height="1023"
     inkscape:window-x="0"
     inkscape:window-y="28"
     inkscape:window-maximized="1" />
  <metadata
     id="metadata5">
    <rdf:RDF>
      <cc:Work
         rdf:about="">
        <dc:format>image/svg+xml</dc:format>
        <dc:type
           rdf:resource="http://purl.org/dc/dcmitype/StillImage" />
        <dc:title></dc:title>
      </cc:Work>
    </rdf:RDF>
  </metadata>
  <g
     inkscape:label="Livello 1"
     inkscape:groupmode="layer"
     id="layer1"
     transform="translate(0,-234.02914)">
    <g
       aria-label="booking"
       style="font-style:normal;font-weight:normal;font-size:19.19505692px;line-height:1.25;font-family:sans-serif;letter-spacing:0px;word-spacing:0px;fill:#000000;fill-opacity:1;stroke:none;stroke-width:0.47987643"
       id="text1087">
      <g
         id="g1142"
         transform="matrix(1.1914464,0,0,1.1914464,-9.4036979,-45.652953)">
        <path
           id="rect1079"
           d="M 9.6915112,254.03429 H 29.397581 v 19.70607 H 9.6915112 Z"
           style="fill:#bb231f;fill-opacity:1;stroke:none;stroke-width:0.26458332"
           inkscape:connector-curvature="0" />
        <g
           id="text1083"
           style="font-style:normal;font-variant:normal;font-weight:normal;font-stretch:normal;font-size:8.17961693px;line-height:1.25;font-family:'Futura XBlk BT';-inkscape-font-specification:'Futura XBlk BT';letter-spacing:0px;word-spacing:0px;fill:#000000;fill-opacity:1;stroke:none;stroke-width:0.20449041"
           aria-label="CGIL">
          <path
             id="path1105"
             style="font-style:normal;font-variant:normal;font-weight:normal;font-stretch:normal;font-family:'Futura XBlk BT';-inkscape-font-specification:'Futura XBlk BT';stroke:none;stroke-width:0.20449041"
             d="m 14.196642,249.29351 q -0.287565,-0.27558 -0.587111,-0.41137 -0.299547,-0.1358 -0.631045,-0.1358 -0.51522,0 -0.830742,0.31952 -0.311529,0.31552 -0.311529,0.84272 0,0.51522 0.299547,0.82276 0.299547,0.30753 0.802785,0.30753 0.30354,0 0.615069,-0.1278 0.315522,-0.13181 0.68696,-0.41538 l -0.0679,2.20067 q -0.34348,0.13979 -0.68696,0.20769 -0.34348,0.0719 -0.68696,0.0719 -0.427353,0 -0.822754,-0.0959 -0.395402,-0.0958 -0.714918,-0.27158 -0.774827,-0.44733 -1.174222,-1.13029 -0.3954016,-0.68297 -0.3954016,-1.56963 0,-0.65501 0.2236614,-1.21416 0.2276552,-0.55915 0.6590022,-0.98651 0.435341,-0.43134 1.006476,-0.65101 0.57513,-0.22366 1.24212,-0.22366 0.355462,0 0.698942,0.0759 0.347474,0.0719 0.674978,0.21967 z"
             inkscape:connector-curvature="0" />
          <path
             id="path1107"
             style="font-style:normal;font-variant:normal;font-weight:normal;font-stretch:normal;font-family:'Futura XBlk BT';-inkscape-font-specification:'Futura XBlk BT';stroke:none;stroke-width:0.20449041"
             d="m 18.84161,250.72734 h -0.914616 v -1.37392 h 3.231109 q 0.008,0.17973 0.01198,0.2676 0.004,0.0879 0.004,0.15576 0,0.50324 -0.09586,0.91861 -0.09586,0.41537 -0.279577,0.73489 -0.447323,0.75086 -1.154252,1.15026 -0.70693,0.3954 -1.60557,0.3954 -0.662996,0 -1.234131,-0.21967 -0.567142,-0.22366 -1.006477,-0.65501 -0.435341,-0.43134 -0.659002,-0.9865 -0.223662,-0.55516 -0.223662,-1.20618 0,-0.65501 0.223662,-1.21016 0.227655,-0.55916 0.659002,-0.98252 0.435341,-0.42735 1.006477,-0.65101 0.571135,-0.22366 1.234131,-0.22366 0.89864,0 1.597582,0.3954 0.698941,0.39141 1.14227,1.15026 l -1.873164,0.69494 q -0.147776,-0.24363 -0.355462,-0.36345 -0.207685,-0.11981 -0.47528,-0.11981 -0.467293,0 -0.74687,0.35546 -0.275582,0.35546 -0.275582,0.95455 0,0.61907 0.279576,0.96255 0.279577,0.33948 0.790803,0.33948 0.303541,0 0.491256,-0.1278 0.19171,-0.12781 0.227657,-0.35547 z"
             inkscape:connector-curvature="0" />
          <path
             id="path1109"
             style="font-style:normal;font-variant:normal;font-weight:normal;font-stretch:normal;font-family:'Futura XBlk BT';-inkscape-font-specification:'Futura XBlk BT';stroke:none;stroke-width:0.20449041"
             d="m 21.980858,252.82018 v -5.84715 h 2.136765 v 5.84715 z"
             inkscape:connector-curvature="0" />
          <path
             id="path1111"
             style="font-style:normal;font-variant:normal;font-weight:normal;font-stretch:normal;font-family:'Futura XBlk BT';-inkscape-font-specification:'Futura XBlk BT';stroke:none;stroke-width:0.20449041"
             d="m 25.247912,252.82018 v -5.84715 h 2.104813 v 3.95002 h 2.044904 v 1.89713 z"
             inkscape:connector-curvature="0" />
        </g>
        <path
           inkscape:connector-curvature="0"
           id="path1089"
           style="font-style:normal;font-variant:normal;font-weight:normal;font-stretch:normal;font-family:'Futura Hv BT';-inkscape-font-specification:'Futura Hv BT';fill:#ffffff;stroke-width:0.53539205"
           d="m 17.328782,266.64271 q 0,1.39077 0.679697,2.16458 0.690154,0.77381 1.913608,0.77381 1.223454,0 1.903151,-0.77381 0.690154,-0.77381 0.690154,-2.16458 0,-1.39076 -0.700611,-2.18549 -0.690153,-0.80518 -1.913608,-0.80518 -1.181627,0 -1.882238,0.80518 -0.690153,0.80518 -0.690153,2.18549 z m -2.718788,5.14478 v -16.20816 h 2.854727 v 5.8454 q 0,0.48102 -0.04183,0.96204 -0.03137,0.47055 -0.09411,0.9202 0.731982,-1.10843 1.589445,-1.61036 0.857464,-0.51239 1.965893,-0.51239 2.195943,0 3.419398,1.45351 1.233911,1.44305 1.233911,4.03635 0,2.4992 -1.244368,4.01544 -1.244369,1.50579 -3.273002,1.50579 -1.223454,0 -2.080918,-0.44965 -0.847008,-0.4601 -1.453506,-1.43258 l 0.02092,1.47441 z" />
        <g
           style="fill:#4d4d4d"
           transform="translate(-1.0768344,1.5096272)"
           id="g1120">
          <path
             d="m 39.062597,265.22952 q 0,-1.12471 -0.656081,-1.79017 -0.656081,-0.67482 -1.762046,-0.67482 -1.105966,0 -1.752674,0.66545 -0.646708,0.66546 -0.646708,1.79954 0,1.12471 0.646708,1.79954 0.646708,0.67482 1.752674,0.67482 1.096592,0 1.752673,-0.67482 0.665454,-0.67483 0.665454,-1.79954 z m 2.71805,0.0187 q 0,2.11821 -1.452751,3.5241 -1.443378,1.40588 -3.664681,1.40588 -2.240048,0 -3.692799,-1.40588 -1.452751,-1.40589 -1.452751,-3.5241 0,-2.10883 1.462123,-3.52409 1.462124,-1.41526 3.683427,-1.41526 2.230675,0 3.674054,1.39652 1.443378,1.39651 1.443378,3.54283 z"
             style="font-style:normal;font-variant:normal;font-weight:normal;font-stretch:normal;font-family:'Futura Hv BT';-inkscape-font-specification:'Futura Hv BT';fill:#4d4d4d;stroke-width:0.47987643"
             id="path1091"
             inkscape:connector-curvature="0" />
          <path
             d="m 50.759585,265.22952 q 0,-1.12471 -0.656081,-1.79017 -0.656081,-0.67482 -1.762046,-0.67482 -1.105965,0 -1.752674,0.66545 -0.646708,0.66546 -0.646708,1.79954 0,1.12471 0.646708,1.79954 0.646709,0.67482 1.752674,0.67482 1.096592,0 1.752673,-0.67482 0.665454,-0.67483 0.665454,-1.79954 z m 2.71805,0.0187 q 0,2.11821 -1.452751,3.5241 -1.443378,1.40588 -3.664681,1.40588 -2.240048,0 -3.692799,-1.40588 -1.452751,-1.40589 -1.452751,-3.5241 0,-2.10883 1.462123,-3.52409 1.462124,-1.41526 3.683427,-1.41526 2.230675,0 3.674054,1.39652 1.443378,1.39651 1.443378,3.54283 z"
             style="font-style:normal;font-variant:normal;font-weight:normal;font-stretch:normal;font-family:'Futura Hv BT';-inkscape-font-specification:'Futura Hv BT';fill:#4d4d4d;stroke-width:0.47987643"
             id="path1093"
             inkscape:connector-curvature="0" />
          <path
             d="M 55.502113,255.2852 H 58.1733 v 9.40071 l 3.411622,-4.0677 h 3.205424 l -3.702171,4.0677 4.067702,5.1268 h -3.29915 L 58.1733,264.93897 v 4.87374 h -2.671187 z"
             style="font-style:normal;font-variant:normal;font-weight:normal;font-stretch:normal;font-family:'Futura Hv BT';-inkscape-font-specification:'Futura Hv BT';fill:#4d4d4d;stroke-width:0.47987643"
             id="path1095"
             inkscape:connector-curvature="0" />
          <path
             d="m 66.20561,256.84105 q 0,-0.63733 0.459257,-1.09659 0.459256,-0.45926 1.096592,-0.45926 0.646709,0 1.105965,0.45926 0.46863,0.44989 0.46863,1.09659 0,0.64671 -0.46863,1.10597 -0.459256,0.45926 -1.105965,0.45926 -0.637336,0 -1.096592,-0.46863 -0.459257,-0.46863 -0.459257,-1.0966 z m 0.234314,12.97166 v -9.1945 h 2.661815 v 9.1945 z"
             style="font-style:normal;font-variant:normal;font-weight:normal;font-stretch:normal;font-family:'Futura Hv BT';-inkscape-font-specification:'Futura Hv BT';fill:#4d4d4d;stroke-width:0.47987643"
             id="path1097"
             inkscape:connector-curvature="0" />
          <path
             d="m 71.810413,269.81271 v -9.1945 h 2.614952 v 1.44337 q 0.721689,-0.89976 1.546476,-1.32153 0.834161,-0.43114 1.8464,-0.43114 1.068475,0 1.790164,0.36553 0.731062,0.35616 1.152828,1.09659 0.206197,0.38428 0.29055,0.87166 0.09373,0.478 0.09373,1.50898 v 0.29055 5.37049 h -2.671191 v -4.5457 q 0,-1.69644 -0.393649,-2.24005 -0.393648,-0.54361 -1.349652,-0.54361 -0.552983,0 -1.021612,0.23432 -0.459257,0.22494 -0.768552,0.6467 -0.243687,0.32804 -0.356158,0.74981 -0.103099,0.42177 -0.103099,1.28405 v 0.36553 4.04895 z"
             style="font-style:normal;font-variant:normal;font-weight:normal;font-stretch:normal;font-family:'Futura Hv BT';-inkscape-font-specification:'Futura Hv BT';fill:#4d4d4d;stroke-width:0.47987643"
             id="path1099"
             inkscape:connector-curvature="0" />
          <path
             d="m 92.889362,269.66275 q 0,1.45275 -0.178079,2.04323 -0.168707,0.59047 -0.590473,1.02161 -0.599846,0.64671 -1.537105,0.956 -0.937258,0.3093 -2.277538,0.3093 -2.240048,0 -3.402249,-0.71232 -1.162201,-0.71232 -1.265299,-2.16507 h 2.933619 q 0.06561,0.53424 0.487375,0.7873 0.421766,0.25306 1.246554,0.25306 1.08722,0 1.565222,-0.56235 0.487374,-0.56236 0.487374,-1.87452 v -1.31216 q -0.534237,0.8529 -1.293417,1.26529 -0.749806,0.4124 -1.780791,0.4124 -1.893262,0 -3.027345,-1.32154 -1.134083,-1.3309 -1.134083,-3.58032 0,-2.28692 1.105965,-3.58033 1.105965,-1.29342 3.055463,-1.29342 1.002867,0 1.780791,0.46863 0.787298,0.45926 1.312163,1.35903 v -1.51836 h 2.511853 z m -2.418128,-4.46135 q 0,-1.21844 -0.61859,-1.92138 -0.618591,-0.70294 -1.687066,-0.70294 -1.096592,0 -1.715183,0.70294 -0.618591,0.69357 -0.618591,1.92138 0,1.22781 0.609218,1.91201 0.609218,0.6842 1.705811,0.6842 1.096593,0 1.705811,-0.6842 0.61859,-0.6842 0.61859,-1.91201 z"
             style="font-style:normal;font-variant:normal;font-weight:normal;font-stretch:normal;font-family:'Futura Hv BT';-inkscape-font-specification:'Futura Hv BT';fill:#4d4d4d;stroke-width:0.47987643"
             id="path1101"
             inkscape:connector-curvature="0" />
        </g>
      </g>
    </g>
  </g>
</svg>
