<?xml version="1.0" encoding="UTF-8" standalone="no"?>
<!-- Created with Inkscape (http://www.inkscape.org/) -->

<svg
   xmlns:dc="http://purl.org/dc/elements/1.1/"
   xmlns:cc="http://creativecommons.org/ns#"
   xmlns:rdf="http://www.w3.org/1999/02/22-rdf-syntax-ns#"
   xmlns:svg="http://www.w3.org/2000/svg"
   xmlns="http://www.w3.org/2000/svg"
   xmlns:sodipodi="http://sodipodi.sourceforge.net/DTD/sodipodi-0.dtd"
   xmlns:inkscape="http://www.inkscape.org/namespaces/inkscape"
   width="128"
   height="32"
   viewBox="0 0 33.866666 8.4666659"
   version="1.1"
   id="svg1386"
   inkscape:version="0.92.2 5c3e80d, 2017-08-06"
   sodipodi:docname="navbar_logo.svg">
  <defs
     id="defs1380" />
  <sodipodi:namedview
     id="base"
     pagecolor="#ffffff"
     bordercolor="#666666"
     borderopacity="1.0"
     inkscape:pageopacity="0.0"
     inkscape:pageshadow="2"
     inkscape:zoom="7.5516795"
     inkscape:cx="62.700697"
     inkscape:cy="18.942825"
     inkscape:document-units="px"
     inkscape:current-layer="layer1"
     showgrid="false"
     units="px"
     inkscape:showpageshadow="false"
     inkscape:window-width="1920"
     inkscape:window-height="1035"
     inkscape:window-x="0"
     inkscape:window-y="0"
     inkscape:window-maximized="0" />
  <metadata
     id="metadata1383">
    <rdf:RDF>
      <cc:Work
         rdf:about="">
        <dc:format>image/svg+xml</dc:format>
        <dc:type
           rdf:resource="http://purl.org/dc/dcmitype/StillImage" />
        <dc:title></dc:title>
      </cc:Work>
    </rdf:RDF>
  </metadata>
  <g
     inkscape:label="Livello 1"
     inkscape:groupmode="layer"
     id="layer1"
     transform="translate(0,-288.53334)">
    <path
       style="opacity:1;fill:#bb231f;fill-opacity:1;stroke:#ffffff;stroke-width:0.26458332;stroke-linecap:square;stroke-linejoin:miter;stroke-miterlimit:4;stroke-dasharray:none;stroke-dashoffset:0;stroke-opacity:1"
       d="m 1.6467087,288.66562 h 5.2674938 v 5.26749 H 1.6467087 Z"
       id="rect1935" />
    <path
       inkscape:connector-curvature="0"
       id="path1937"
       style="font-style:normal;font-variant:normal;font-weight:normal;font-stretch:normal;font-size:medium;line-height:1.25;font-family:'Futura Hv BT';-inkscape-font-specification:'Futura Hv BT';letter-spacing:0px;word-spacing:0px;fill:#f9f9f9;fill-opacity:1;stroke:none;stroke-width:0.90576106"
       d="m 4.2079223,291.79126 q 0,0.31372 0.1533189,0.48826 0.1556777,0.17455 0.4316517,0.17455 0.2759741,0 0.429293,-0.17455 0.1556777,-0.17454 0.1556777,-0.48826 0,-0.31371 -0.1580364,-0.49298 -0.1556777,-0.18162 -0.4316518,-0.18162 -0.266539,0 -0.4245755,0.18162 -0.1556776,0.18163 -0.1556776,0.49298 z m -0.6132758,1.16051 V 289.2957 H 4.238586 v 1.31854 q 0,0.10851 -0.00943,0.21701 -0.00708,0.10614 -0.021229,0.20757 0.1651126,-0.25003 0.3585304,-0.36325 0.1934177,-0.11558 0.4434455,-0.11558 0.4953381,0 0.7713122,0.32787 0.2783328,0.32551 0.2783328,0.91048 0,0.56374 -0.2806916,0.90576 -0.2806916,0.33966 -0.7382896,0.33966 -0.2759741,0 -0.4693918,-0.10143 -0.191059,-0.10378 -0.3278667,-0.32315 l 0.00472,0.33259 z" />
    <path
       inkscape:connector-curvature="0"
       id="path1939"
       style="font-style:normal;font-variant:normal;font-weight:normal;font-stretch:normal;font-size:medium;line-height:1.25;font-family:'Futura Hv BT';-inkscape-font-specification:'Futura Hv BT';letter-spacing:0px;word-spacing:0px;fill:#f9f9f9;fill-opacity:1;stroke:none;stroke-width:0.90576106"
       d="m 9.3073224,291.79834 q 0,-0.28305 -0.1651127,-0.45052 -0.1651127,-0.16983 -0.4434455,-0.16983 -0.2783328,0 -0.4410868,0.16747 -0.1627539,0.16747 -0.1627539,0.45288 0,0.28305 0.1627539,0.45288 0.162754,0.16983 0.4410868,0.16983 0.2759741,0 0.4410868,-0.16983 0.1674714,-0.16983 0.1674714,-0.45288 z m 0.6840383,0.005 q 0,0.53308 -0.3656067,0.8869 -0.3632479,0.35381 -0.9222723,0.35381 -0.5637419,0 -0.9293486,-0.35381 -0.3656067,-0.35382 -0.3656067,-0.8869 0,-0.53071 0.3679655,-0.88689 0.3679654,-0.35617 0.9269898,-0.35617 0.5613832,0 0.9246311,0.35146 0.3632479,0.35145 0.3632479,0.8916 z" />
    <path
       inkscape:connector-curvature="0"
       id="path1941"
       style="font-style:normal;font-variant:normal;font-weight:normal;font-stretch:normal;font-size:medium;line-height:1.25;font-family:'Futura Hv BT';-inkscape-font-specification:'Futura Hv BT';letter-spacing:0px;word-spacing:0px;fill:#f9f9f9;fill-opacity:1;stroke:none;stroke-width:0.90576106"
       d="m 12.251046,291.79834 q 0,-0.28305 -0.165112,-0.45052 -0.165113,-0.16983 -0.443446,-0.16983 -0.278333,0 -0.441087,0.16747 -0.162754,0.16747 -0.162754,0.45288 0,0.28305 0.162754,0.45288 0.162754,0.16983 0.441087,0.16983 0.275974,0 0.441087,-0.16983 0.167471,-0.16983 0.167471,-0.45288 z m 0.684039,0.005 q 0,0.53308 -0.365607,0.8869 -0.363248,0.35381 -0.922273,0.35381 -0.563741,0 -0.929348,-0.35381 -0.365607,-0.35382 -0.365607,-0.8869 0,-0.53071 0.367966,-0.88689 0.367965,-0.35617 0.926989,-0.35617 0.561384,0 0.924632,0.35146 0.363248,0.35145 0.363248,0.8916 z" />
    <path
       inkscape:connector-curvature="0"
       id="path1943"
       style="font-style:normal;font-variant:normal;font-weight:normal;font-stretch:normal;font-size:medium;line-height:1.25;font-family:'Futura Hv BT';-inkscape-font-specification:'Futura Hv BT';letter-spacing:0px;word-spacing:0px;fill:#f9f9f9;fill-opacity:1;stroke:none;stroke-width:0.90576106"
       d="m 13.444574,289.2957 h 0.672245 v 2.36583 l 0.858586,-1.0237 h 0.806693 l -0.931707,1.0237 1.023699,1.29024 h -0.830281 l -0.92699,-1.22655 v 1.22655 h -0.672245 z" />
    <path
       inkscape:connector-curvature="0"
       id="path1945"
       style="font-style:normal;font-variant:normal;font-weight:normal;font-stretch:normal;font-size:medium;line-height:1.25;font-family:'Futura Hv BT';-inkscape-font-specification:'Futura Hv BT';letter-spacing:0px;word-spacing:0px;fill:#f9f9f9;fill-opacity:1;stroke:none;stroke-width:0.90576106"
       d="m 16.138271,289.68725 q 0,-0.16039 0.115579,-0.27597 0.115579,-0.11558 0.275974,-0.11558 0.162754,0 0.278333,0.11558 0.117937,0.11322 0.117937,0.27597 0,0.16276 -0.117937,0.27834 -0.115579,0.11558 -0.278333,0.11558 -0.160395,0 -0.275974,-0.11794 -0.115579,-0.11794 -0.115579,-0.27598 z m 0.05897,3.26452 v -2.31394 h 0.669885 v 2.31394 z" />
    <path
       inkscape:connector-curvature="0"
       id="path1947"
       style="font-style:normal;font-variant:normal;font-weight:normal;font-stretch:normal;font-size:medium;line-height:1.25;font-family:'Futura Hv BT';-inkscape-font-specification:'Futura Hv BT';letter-spacing:0px;word-spacing:0px;fill:#f9f9f9;fill-opacity:1;stroke:none;stroke-width:0.90576106"
       d="m 17.548804,292.95177 v -2.31394 h 0.658092 v 0.36325 q 0.181624,-0.22644 0.389195,-0.33259 0.209929,-0.1085 0.464674,-0.1085 0.268898,0 0.450522,0.092 0.183982,0.0896 0.290126,0.27598 0.05189,0.0967 0.07312,0.21936 0.02359,0.1203 0.02359,0.37976 v 0.0731 1.35157 h -0.672245 v -1.144 q 0,-0.42693 -0.09907,-0.56374 -0.09907,-0.13681 -0.33966,-0.13681 -0.139167,0 -0.257105,0.059 -0.115578,0.0566 -0.193417,0.16276 -0.06133,0.0826 -0.08963,0.1887 -0.02595,0.10614 -0.02595,0.32314 v 0.092 1.01898 z" />
    <path
       inkscape:connector-curvature="0"
       id="path1949"
       style="font-style:normal;font-variant:normal;font-weight:normal;font-stretch:normal;font-size:medium;line-height:1.25;font-family:'Futura Hv BT';-inkscape-font-specification:'Futura Hv BT';letter-spacing:0px;word-spacing:0px;fill:#f9f9f9;fill-opacity:1;stroke:none;stroke-width:0.90576106"
       d="m 22.85364,292.91403 q 0,0.3656 -0.04482,0.51421 -0.04246,0.1486 -0.148602,0.2571 -0.15096,0.16275 -0.386835,0.24059 -0.235876,0.0778 -0.573177,0.0778 -0.563742,0 -0.856228,-0.17926 -0.292485,-0.17927 -0.318431,-0.54488 h 0.738289 q 0.01651,0.13445 0.122656,0.19814 0.106144,0.0637 0.313714,0.0637 0.273615,0 0.393911,-0.14153 0.122656,-0.14152 0.122656,-0.47175 v -0.33023 q -0.134449,0.21465 -0.325508,0.31844 -0.188701,0.10378 -0.448163,0.10378 -0.476468,0 -0.761877,-0.33258 -0.28541,-0.33495 -0.28541,-0.90105 0,-0.57553 0.278333,-0.90104 0.278333,-0.32551 0.768954,-0.32551 0.252386,0 0.448163,0.11794 0.198135,0.11558 0.330225,0.34202 v -0.38212 h 0.632146 z m -0.608558,-1.12277 q 0,-0.30664 -0.155678,-0.48354 -0.155678,-0.17691 -0.424576,-0.17691 -0.275974,0 -0.431651,0.17691 -0.155678,0.17454 -0.155678,0.48354 0,0.309 0.153319,0.48119 0.153319,0.17219 0.429293,0.17219 0.275974,0 0.429293,-0.17219 0.155678,-0.17219 0.155678,-0.48119 z" />
    <path
       inkscape:connector-curvature="0"
       id="path1951"
       style="font-style:normal;font-variant:normal;font-weight:normal;font-stretch:normal;font-size:medium;line-height:1.25;font-family:'Futura Hv BT';-inkscape-font-specification:'Futura Hv BT';letter-spacing:0px;word-spacing:0px;fill:#f9f9f9;fill-opacity:1;stroke:none;stroke-width:0.90576106"
       d="m 23.445687,292.61918 q 0,-0.16983 0.117938,-0.29012 0.120296,-0.1203 0.287767,-0.1203 0.167472,0 0.28541,0.1203 0.120296,0.12029 0.120296,0.29012 0,0.16747 -0.117938,0.28541 -0.117937,0.11558 -0.287768,0.11558 -0.167471,0 -0.287767,-0.11794 -0.117938,-0.11793 -0.117938,-0.28305 z" />
    <path
       inkscape:connector-curvature="0"
       id="path1953"
       style="font-style:normal;font-variant:normal;font-weight:normal;font-stretch:normal;font-size:medium;line-height:1.25;font-family:'Futura Hv BT';-inkscape-font-specification:'Futura Hv BT';letter-spacing:0px;word-spacing:0px;fill:#333333;fill-opacity:1;stroke:none;stroke-width:0.90576106"
       d="m 26.632361,292.88336 q -0.136808,0.0826 -0.287768,0.1203 -0.15096,0.0401 -0.330225,0.0401 -0.547231,0 -0.891609,-0.34674 -0.344378,-0.34909 -0.344378,-0.90576 0,-0.54487 0.346737,-0.88689 0.346737,-0.34438 0.898685,-0.34438 0.183983,0 0.330225,0.0354 0.146243,0.0354 0.278333,0.11086 l -0.0047,0.67461 q -0.106144,-0.1085 -0.245311,-0.16747 -0.139166,-0.059 -0.294844,-0.059 -0.28305,0 -0.45288,0.17455 -0.16983,0.17218 -0.16983,0.45759 0,0.29249 0.172188,0.46704 0.174548,0.17219 0.469392,0.17219 0.162754,0 0.287768,-0.059 0.127373,-0.059 0.233517,-0.18399 z" />
    <path
       inkscape:connector-curvature="0"
       id="path1955"
       style="font-style:normal;font-variant:normal;font-weight:normal;font-stretch:normal;font-size:medium;line-height:1.25;font-family:'Futura Hv BT';-inkscape-font-specification:'Futura Hv BT';letter-spacing:0px;word-spacing:0px;fill:#333333;fill-opacity:1;stroke:none;stroke-width:0.90576106"
       d="m 29.458147,292.91403 q 0,0.3656 -0.04482,0.51421 -0.04246,0.1486 -0.148601,0.2571 -0.150961,0.16275 -0.386836,0.24059 -0.235875,0.0778 -0.573177,0.0778 -0.563742,0 -0.856227,-0.17926 -0.292485,-0.17927 -0.318432,-0.54488 h 0.73829 q 0.01651,0.13445 0.122655,0.19814 0.106144,0.0637 0.313714,0.0637 0.273616,0 0.393912,-0.14153 0.122655,-0.14152 0.122655,-0.47175 v -0.33023 q -0.134449,0.21465 -0.325508,0.31844 -0.1887,0.10378 -0.448163,0.10378 -0.476468,0 -0.761877,-0.33258 -0.285409,-0.33495 -0.285409,-0.90105 0,-0.57553 0.278333,-0.90104 0.278333,-0.32551 0.768953,-0.32551 0.252387,0 0.448163,0.11794 0.198135,0.11558 0.330226,0.34202 v -0.38212 h 0.632145 z m -0.608558,-1.12277 q 0,-0.30664 -0.155678,-0.48354 -0.155677,-0.17691 -0.424575,-0.17691 -0.275974,0 -0.431652,0.17691 -0.155678,0.17454 -0.155678,0.48354 0,0.309 0.153319,0.48119 0.153319,0.17219 0.429293,0.17219 0.275974,0 0.429293,-0.17219 0.155678,-0.17219 0.155678,-0.48119 z" />
    <path
       inkscape:connector-curvature="0"
       id="path1957"
       style="font-style:normal;font-variant:normal;font-weight:normal;font-stretch:normal;font-size:medium;line-height:1.25;font-family:'Futura Hv BT';-inkscape-font-specification:'Futura Hv BT';letter-spacing:0px;word-spacing:0px;fill:#333333;fill-opacity:1;stroke:none;stroke-width:0.90576106"
       d="m 30.092653,289.68725 q 0,-0.16039 0.115579,-0.27597 0.115578,-0.11558 0.275974,-0.11558 0.162754,0 0.278332,0.11558 0.117938,0.11322 0.117938,0.27597 0,0.16276 -0.117938,0.27834 -0.115578,0.11558 -0.278332,0.11558 -0.160396,0 -0.275974,-0.11794 -0.115579,-0.11794 -0.115579,-0.27598 z m 0.05897,3.26452 v -2.31394 h 0.669886 v 2.31394 z" />
    <path
       inkscape:connector-curvature="0"
       id="path1959"
       style="font-style:normal;font-variant:normal;font-weight:normal;font-stretch:normal;font-size:medium;line-height:1.25;font-family:'Futura Hv BT';-inkscape-font-specification:'Futura Hv BT';letter-spacing:0px;word-spacing:0px;fill:#333333;fill-opacity:1;stroke:none;stroke-width:0.90576106"
       d="m 31.529132,292.95177 v -3.65607 h 0.669885 v 3.65607 z" />
  </g>
</svg>
