<?xml version="1.0" encoding="UTF-8" standalone="no"?>
<!-- Created with Inkscape (http://www.inkscape.org/) -->

<svg
   xmlns:dc="http://purl.org/dc/elements/1.1/"
   xmlns:cc="http://creativecommons.org/ns#"
   xmlns:rdf="http://www.w3.org/1999/02/22-rdf-syntax-ns#"
   xmlns:svg="http://www.w3.org/2000/svg"
   xmlns="http://www.w3.org/2000/svg"
   xmlns:sodipodi="http://sodipodi.sourceforge.net/DTD/sodipodi-0.dtd"
   xmlns:inkscape="http://www.inkscape.org/namespaces/inkscape"
   width="90"
   height="36"
   viewBox="0 0 23.812499 9.5250003"
   version="1.1"
   id="svg8"
   inkscape:version="0.92.3 (2405546, 2018-03-11)"
   sodipodi:docname="big_room_logo.svg">
  <defs
     id="defs2" />
  <sodipodi:namedview
     id="base"
     pagecolor="#ffffff"
     bordercolor="#666666"
     borderopacity="1.0"
     inkscape:pageopacity="0.0"
     inkscape:pageshadow="2"
     inkscape:zoom="3.6134641"
     inkscape:cx="31.209158"
     inkscape:cy="8.6044011"
     inkscape:document-units="px"
     inkscape:current-layer="layer1"
     showgrid="false"
     units="px"
     inkscape:showpageshadow="false"
     inkscape:window-width="2552"
     inkscape:window-height="1023"
     inkscape:window-x="0"
     inkscape:window-y="28"
     inkscape:window-maximized="1" />
  <metadata
     id="metadata5">
    <rdf:RDF>
      <cc:Work
         rdf:about="">
        <dc:format>image/svg+xml</dc:format>
        <dc:type
           rdf:resource="http://purl.org/dc/dcmitype/StillImage" />
        <dc:title></dc:title>
      </cc:Work>
    </rdf:RDF>
  </metadata>
  <g
     inkscape:label="Livello 1"
     inkscape:groupmode="layer"
     id="layer1"
     transform="translate(0,-287.47498)">
    <g
       id="g1378"
       transform="matrix(1.1326365,0,0,1.1326365,-7.7665582,-37.526151)">
      <g
         id="g1297">
        <path
           style="fill:#9cabb8;stroke-width:0.01580616"
           inkscape:connector-curvature="0"
           d="m 13.052135,294.52083 c 4.27e-4,-0.004 6.64e-4,-0.008 6.64e-4,-0.0127 v -0.66749 c 0,-0.0675 -0.05467,-0.12215 -0.12215,-0.12215 -0.06746,0 -0.12215,0.0547 -0.12215,0.12215 v 0.66749 c 0,0.004 2.37e-4,0.009 6.64e-4,0.0127 -0.08815,0.0445 -0.148736,0.13563 -0.148736,0.24112 0,0.14924 0.12098,0.27021 0.270206,0.27021 0.149226,0 0.270207,-0.12098 0.270207,-0.27021 1.6e-5,-0.10547 -0.06057,-0.19661 -0.148705,-0.24112 z"
           id="path1079" />
        <path
           style="fill:#e5ecf1;stroke-width:0.01580616"
           inkscape:connector-curvature="0"
           d="m 9.4446323,289.18017 h 6.9884087 v 4.65113 H 9.4446323 Z"
           id="path1081" />
        <path
           style="fill:#9cabb8;stroke-width:0.01580616"
           inkscape:connector-curvature="0"
           d="m 16.168683,289.18047 c -0.01965,0 -0.03956,-0.005 -0.05806,-0.0148 l -3.179835,-1.72217 -3.1635244,1.72205 c -0.059242,0.0322 -0.1334198,0.0104 -0.1656801,-0.0489 -0.03226,-0.0593 -0.010369,-0.13344 0.048873,-0.16568 l 3.2217845,-1.75376 c 0.03634,-0.0198 0.08019,-0.0198 0.116555,-1.3e-4 l 3.238145,1.75376 c 0.05932,0.0321 0.08137,0.10625 0.04924,0.16557 -0.02208,0.0408 -0.06411,0.064 -0.107498,0.064 z"
           id="path1089" />
        <path
           style="fill:#a64c31;stroke-width:0.01580616"
           inkscape:connector-curvature="0"
           d="M 16.863712,289.35124 H 8.9975867 c -0.062592,0 -0.1133144,-0.0507 -0.1133144,-0.11332 v -0.53124 c 0,-0.0626 0.050738,-0.11332 0.1133144,-0.11332 h 7.8661093 c 0.06259,0 0.113314,0.0507 0.113314,0.11332 v 0.53124 c 1.6e-5,0.0626 -0.05072,0.11332 -0.113298,0.11332 z"
           id="path1091" />
        <path
           style="fill:#8a3e25;stroke-width:0.01580616"
           inkscape:connector-curvature="0"
           d="m 16.859618,288.59335 h -0.239384 v 0.30425 c 0,0.0648 -0.05257,0.11741 -0.117408,0.11741 H 8.8842723 v 0.21882 c 0,0.0648 0.052571,0.11741 0.1174082,0.11741 h 7.8579375 c 0.06484,0 0.117408,-0.0526 0.117408,-0.11741 v -0.52308 c 0,-0.0649 -0.05257,-0.1174 -0.117408,-0.1174 z"
           id="path1093" />
        <path
           style="fill:#a64c31;stroke-width:0.01580616"
           inkscape:connector-curvature="0"
           d="M 16.863712,294.03011 H 8.9975867 c -0.062592,0 -0.1133144,-0.0507 -0.1133144,-0.11331 v -0.1523 c 0,-0.0626 0.050738,-0.11331 0.1133144,-0.11331 h 7.8661093 c 0.06259,0 0.113314,0.0507 0.113314,0.11331 v 0.1523 c 1.6e-5,0.0626 -0.05072,0.11331 -0.113298,0.11331 z"
           id="path1095" />
        <path
           style="fill:#8a3e25;stroke-width:0.01580616"
           inkscape:connector-curvature="0"
           d="m 16.863712,293.65116 h -0.686067 c 0.06258,0 0.113315,0.0507 0.113315,0.11331 v 0.1523 c 0,0.0626 -0.05074,0.11331 -0.113315,0.11331 h 0.686067 c 0.06258,0 0.113314,-0.0507 0.113314,-0.11331 v -0.1523 c 0,-0.0626 -0.05074,-0.11331 -0.113314,-0.11331 z"
           id="path1097" />
        <circle
           style="fill:#d6e4ea;stroke-width:0.01580616"
           cx="12.930649"
           cy="287.30453"
           r="0.36240363"
           id="circle1099" />
        <path
           style="fill:#c2d0da;stroke-width:0.01580616"
           inkscape:connector-curvature="0"
           d="m 13.036108,286.95777 c 0.0093,0.0321 0.0144,0.066 0.0144,0.10111 0,0.20016 -0.16225,0.36241 -0.362403,0.36241 -0.03669,0 -0.07208,-0.005 -0.105459,-0.0156 0.04378,0.15092 0.182956,0.2613 0.347988,0.2613 0.200154,0 0.362404,-0.16225 0.362404,-0.36241 1.6e-5,-0.16346 -0.108225,-0.30159 -0.256929,-0.34677 z"
           id="path1101" />
      </g>
      <g
         transform="translate(-24.02655,2.1283329)"
         id="g1332">
        <g
           id="g1236"
           transform="matrix(0.64701729,0,0,0.64701729,10.966955,102.00503)">
          <g
             transform="matrix(0.01756999,0,0,0.01756999,34.433595,286.54241)"
             id="g1024"
             style="fill:#ffcbbe">
            <path
               id="path1018"
               d="m 261.797,299.596 c 1.183,16.061 -2.683,29.436 -16.221,30.433 -13.537,0.997 -25.924,-17.38 -27.107,-33.441 -1.183,-16.061 9.286,-23.723 22.824,-24.72 13.537,-0.997 19.321,11.667 20.504,27.728 z"
               inkscape:connector-curvature="0" />
            <path
               id="path1020"
               d="m 391.101,299.596 c -1.183,16.061 2.683,29.436 16.221,30.433 13.537,0.997 25.924,-17.38 27.107,-33.441 1.183,-16.061 -9.286,-23.723 -22.824,-24.72 -13.537,-0.997 -19.321,11.667 -20.504,27.728 z"
               inkscape:connector-curvature="0" />
            <path
               id="path1022"
               d="m 270.178,297.953 h 112.541 v 97.791 H 270.178 Z"
               inkscape:connector-curvature="0" />
          </g>
          <path
             id="path1026"
             d="m 40.69264,291.77744 h 0.465342 v 1.71819 H 40.69264 Z"
             inkscape:connector-curvature="0"
             style="fill:#fdad9d;stroke-width:0.01756999" />
          <path
             id="path1028"
             d="m 41.234815,293.38283 h -2.131029 c -1.039616,0 -1.882378,0.84278 -1.882378,1.88238 v 0.10512 c 0,0.0927 0.07518,0.16791 0.167916,0.16791 h 5.559988 c 0.09273,0 0.167917,-0.0752 0.167917,-0.16791 v -0.10512 c -3.5e-5,-1.0396 -0.842798,-1.88238 -1.882414,-1.88238 z"
             inkscape:connector-curvature="0"
             style="fill:#586b76;stroke-width:0.01756999" />
          <path
             id="path1030"
             d="m 41.234815,293.38283 h -0.755562 c 1.039616,0 1.882378,0.84278 1.882378,1.88238 v 0.10512 c 0,0.0927 -0.07518,0.16791 -0.167916,0.16791 h 0.755562 c 0.09273,0 0.167917,-0.0752 0.167917,-0.16791 v -0.10512 c 0,-1.0396 -0.842763,-1.88238 -1.882379,-1.88238 z"
             inkscape:connector-curvature="0"
             style="fill:#465961;stroke-width:0.01756999" />
          <path
             id="path1042"
             d="m 41.305236,291.80631 c -0.02079,0.28219 0.04714,0.51719 0.285002,0.53471 0.237845,0.0175 0.455485,-0.30537 0.47627,-0.58756 0.02079,-0.28219 -0.163155,-0.41681 -0.401017,-0.43433 -0.237845,-0.0175 -0.33947,0.20499 -0.360255,0.48718 z"
             inkscape:connector-curvature="0"
             style="fill:#fdad9d;stroke-width:0.01756999" />
          <path
             id="path1044"
             d="m 41.194387,288.98151 c -0.02144,-0.005 -0.04375,0.005 -0.05338,0.0249 -0.103944,0.21471 -0.323833,0.36282 -0.578369,0.36282 h -1.003861 c -0.462724,2e-5 -0.837825,0.37514 -0.837825,0.83786 v 1.24143 c 0,0.78191 0.633872,1.41579 1.415789,1.41579 h 0.08537 c 0.781917,0 1.41579,-0.63388 1.41579,-1.41579 v -0.9417 c 0,-0.13069 0.03164,-0.25902 0.08922,-0.37635 0.05304,-0.10809 0.08288,-0.22962 0.08288,-0.35817 1.7e-5,-0.38327 -0.260054,-0.70241 -0.615617,-0.79077 z"
             inkscape:connector-curvature="0"
             style="fill:#fcb143;stroke-width:0.01756999" />
          <path
             id="path1046"
             d="m 41.194387,288.98151 c -0.02144,-0.005 -0.04375,0.005 -0.05338,0.0249 -0.005,0.0104 -0.01056,0.0205 -0.01611,0.0305 0.117948,0.14131 0.188667,0.32352 0.188667,0.52325 0,0.12854 -0.02983,0.25007 -0.08288,0.35817 -0.05758,0.11733 -0.08922,0.24564 -0.08922,0.37634 v 0.9417 c 0,0.78192 -0.633873,1.41579 -1.41579,1.41579 h -0.08537 c -0.102152,0 -0.201738,-0.0109 -0.297758,-0.0315 0.226477,0.15375 0.499831,0.2436 0.794198,0.2436 h 0.08537 c 0.781917,0 1.41579,-0.63387 1.41579,-1.41579 v -0.9417 c 0,-0.13068 0.03164,-0.25901 0.08922,-0.37633 0.05304,-0.10809 0.08288,-0.22962 0.08288,-0.35816 1.7e-5,-0.38331 -0.260054,-0.70245 -0.615617,-0.79081 z"
             inkscape:connector-curvature="0"
             style="fill:#fba615;stroke-width:0.01756999" />
        </g>
        <g
           id="g1248"
           transform="matrix(0.64701729,0,0,0.64701729,10.136677,102.00503)">
          <g
             style="fill:#ffcbbe"
             id="g1180"
             transform="matrix(0.01756999,0,0,0.01756999,42.082705,286.54241)">
            <path
               inkscape:connector-curvature="0"
               d="m 261.797,299.596 c 1.183,16.061 -2.683,29.436 -16.221,30.433 -13.537,0.997 -25.924,-17.38 -27.107,-33.441 -1.183,-16.061 9.286,-23.723 22.824,-24.72 13.537,-0.997 19.321,11.667 20.504,27.728 z"
               id="path1174" />
            <path
               inkscape:connector-curvature="0"
               d="m 391.101,299.596 c -1.183,16.061 2.683,29.436 16.221,30.433 13.537,0.997 25.924,-17.38 27.107,-33.441 1.183,-16.061 -9.286,-23.723 -22.824,-24.72 -13.537,-0.997 -19.321,11.667 -20.504,27.728 z"
               id="path1176" />
            <path
               inkscape:connector-curvature="0"
               d="m 270.178,297.953 h 112.541 v 97.791 H 270.178 Z"
               id="path1178" />
          </g>
          <path
             style="fill:#fdad9d;stroke-width:0.01756999"
             inkscape:connector-curvature="0"
             d="m 48.34175,291.77744 h 0.465342 v 1.71819 H 48.34175 Z"
             id="path1182" />
          <path
             style="fill:#586b76;stroke-width:0.01756999"
             inkscape:connector-curvature="0"
             d="m 48.883925,293.38283 h -2.131029 c -1.039616,0 -1.882378,0.84278 -1.882378,1.88238 v 0.10512 c 0,0.0927 0.07518,0.16791 0.167916,0.16791 h 5.559988 c 0.09273,0 0.167917,-0.0752 0.167917,-0.16791 v -0.10512 c -3.5e-5,-1.0396 -0.842798,-1.88238 -1.882414,-1.88238 z"
             id="path1184" />
          <path
             style="fill:#465961;stroke-width:0.01756999"
             inkscape:connector-curvature="0"
             d="m 48.883925,293.38283 h -0.755562 c 1.039616,0 1.882378,0.84278 1.882378,1.88238 v 0.10512 c 0,0.0927 -0.07518,0.16791 -0.167916,0.16791 h 0.755562 c 0.09273,0 0.167917,-0.0752 0.167917,-0.16791 v -0.10512 c 0,-1.0396 -0.842763,-1.88238 -1.882379,-1.88238 z"
             id="path1186" />
          <path
             style="fill:#fdad9d;stroke-width:0.01756999"
             inkscape:connector-curvature="0"
             d="m 48.954346,291.80631 c -0.02079,0.28219 0.04714,0.51719 0.285002,0.53471 0.237845,0.0175 0.455485,-0.30537 0.47627,-0.58756 0.02079,-0.28219 -0.163155,-0.41681 -0.401017,-0.43433 -0.237845,-0.0175 -0.33947,0.20499 -0.360255,0.48718 z"
             id="path1188" />
          <path
             style="fill:#aa4400;stroke-width:0.01756999"
             inkscape:connector-curvature="0"
             d="m 48.843497,288.98151 c -0.02144,-0.005 -0.04375,0.005 -0.05338,0.0249 -0.103944,0.21471 -0.323833,0.36282 -0.578369,0.36282 h -1.003861 c -0.462724,2e-5 -0.837825,0.37514 -0.837825,0.83786 v 1.24143 c 0,0.78191 0.633872,1.41579 1.415789,1.41579 h 0.08537 c 0.781917,0 1.41579,-0.63388 1.41579,-1.41579 v -0.9417 c 0,-0.13069 0.03164,-0.25902 0.08922,-0.37635 0.05304,-0.10809 0.08288,-0.22962 0.08288,-0.35817 1.7e-5,-0.38327 -0.260054,-0.70241 -0.615617,-0.79077 z"
             id="path1190" />
          <path
             style="fill:#803300;stroke-width:0.01756999"
             inkscape:connector-curvature="0"
             d="m 48.843497,288.98151 c -0.02144,-0.005 -0.04375,0.005 -0.05338,0.0249 -0.005,0.0104 -0.01056,0.0205 -0.01611,0.0305 0.117948,0.14131 0.188667,0.32352 0.188667,0.52325 0,0.12854 -0.02983,0.25007 -0.08288,0.35817 -0.05758,0.11733 -0.08922,0.24564 -0.08922,0.37634 v 0.9417 c 0,0.78192 -0.633873,1.41579 -1.41579,1.41579 h -0.08537 c -0.102152,0 -0.201738,-0.0109 -0.297758,-0.0315 0.226477,0.15375 0.499831,0.2436 0.794198,0.2436 h 0.08537 c 0.781917,0 1.41579,-0.63387 1.41579,-1.41579 v -0.9417 c 0,-0.13068 0.03164,-0.25901 0.08922,-0.37633 0.05304,-0.10809 0.08288,-0.22962 0.08288,-0.35816 1.7e-5,-0.38331 -0.260054,-0.70245 -0.615617,-0.79081 z"
             id="path1192" />
        </g>
        <g
           id="g1224"
           transform="matrix(0.64701729,0,0,0.64701729,11.211155,102.00503)">
          <g
             style="fill:#ffcbbe"
             id="g1200"
             transform="matrix(0.01756999,0,0,0.01756999,27.690301,286.54241)">
            <path
               inkscape:connector-curvature="0"
               d="m 261.797,299.596 c 1.183,16.061 -2.683,29.436 -16.221,30.433 -13.537,0.997 -25.924,-17.38 -27.107,-33.441 -1.183,-16.061 9.286,-23.723 22.824,-24.72 13.537,-0.997 19.321,11.667 20.504,27.728 z"
               id="path1194" />
            <path
               inkscape:connector-curvature="0"
               d="m 391.101,299.596 c -1.183,16.061 2.683,29.436 16.221,30.433 13.537,0.997 25.924,-17.38 27.107,-33.441 1.183,-16.061 -9.286,-23.723 -22.824,-24.72 -13.537,-0.997 -19.321,11.667 -20.504,27.728 z"
               id="path1196" />
            <path
               inkscape:connector-curvature="0"
               d="m 270.178,297.953 h 112.541 v 97.791 H 270.178 Z"
               id="path1198" />
          </g>
          <path
             style="fill:#fdad9d;stroke-width:0.01756999"
             inkscape:connector-curvature="0"
             d="m 33.949346,291.77744 h 0.465342 v 1.71819 h -0.465342 z"
             id="path1202" />
          <path
             style="fill:#586b76;stroke-width:0.01756999"
             inkscape:connector-curvature="0"
             d="m 34.491521,293.38283 h -2.131029 c -1.039616,0 -1.882378,0.84278 -1.882378,1.88238 v 0.10512 c 0,0.0927 0.07518,0.16791 0.167916,0.16791 h 5.559988 c 0.09273,0 0.167917,-0.0752 0.167917,-0.16791 v -0.10512 c -3.5e-5,-1.0396 -0.842798,-1.88238 -1.882414,-1.88238 z"
             id="path1204" />
          <path
             style="fill:#465961;stroke-width:0.01756999"
             inkscape:connector-curvature="0"
             d="m 34.491521,293.38283 h -0.755562 c 1.039616,0 1.882378,0.84278 1.882378,1.88238 v 0.10512 c 0,0.0927 -0.07518,0.16791 -0.167916,0.16791 h 0.755562 c 0.09273,0 0.167917,-0.0752 0.167917,-0.16791 v -0.10512 c 0,-1.0396 -0.842763,-1.88238 -1.882379,-1.88238 z"
             id="path1206" />
          <path
             style="fill:#fdad9d;stroke-width:0.01756999"
             inkscape:connector-curvature="0"
             d="m 34.561942,291.80631 c -0.02079,0.28219 0.04714,0.51719 0.285002,0.53471 0.237845,0.0175 0.455485,-0.30537 0.47627,-0.58756 0.02079,-0.28219 -0.163155,-0.41681 -0.401017,-0.43433 -0.237845,-0.0175 -0.33947,0.20499 -0.360255,0.48718 z"
             id="path1208" />
          <path
             style="fill:#ff6600;stroke-width:0.01756999"
             inkscape:connector-curvature="0"
             d="m 34.451093,288.98151 c -0.02144,-0.005 -0.04375,0.005 -0.05338,0.0249 -0.103944,0.21471 -0.323833,0.36282 -0.578369,0.36282 h -1.003861 c -0.462724,2e-5 -0.837825,0.37514 -0.837825,0.83786 v 1.24143 c 0,0.78191 0.633872,1.41579 1.415789,1.41579 h 0.08537 c 0.781917,0 1.41579,-0.63388 1.41579,-1.41579 v -0.9417 c 0,-0.13069 0.03164,-0.25902 0.08922,-0.37635 0.05304,-0.10809 0.08288,-0.22962 0.08288,-0.35817 1.7e-5,-0.38327 -0.260054,-0.70241 -0.615617,-0.79077 z"
             id="path1210" />
          <path
             style="fill:#d45500;stroke-width:0.01756999"
             inkscape:connector-curvature="0"
             d="m 34.451093,288.98151 c -0.02144,-0.005 -0.04375,0.005 -0.05338,0.0249 -0.005,0.0104 -0.01056,0.0205 -0.01611,0.0305 0.117948,0.14131 0.188667,0.32352 0.188667,0.52325 0,0.12854 -0.02983,0.25007 -0.08288,0.35817 -0.05758,0.11733 -0.08922,0.24564 -0.08922,0.37634 v 0.9417 c 0,0.78192 -0.633873,1.41579 -1.41579,1.41579 h -0.08537 c -0.102152,0 -0.201738,-0.0109 -0.297758,-0.0315 0.226477,0.15375 0.499831,0.2436 0.794198,0.2436 h 0.08537 c 0.781917,0 1.41579,-0.63387 1.41579,-1.41579 v -0.9417 c 0,-0.13068 0.03164,-0.25901 0.08922,-0.37633 0.05304,-0.10809 0.08288,-0.22962 0.08288,-0.35816 1.7e-5,-0.38331 -0.260054,-0.70245 -0.615617,-0.79081 z"
             id="path1212" />
        </g>
      </g>
    </g>
    <g
       id="g4995"
       transform="matrix(1.033774,0,0,1.033774,-0.45779482,-9.7091773)">
      <path
         id="path232"
         d="m 14.615947,288.46033 h 8.861423 v 8.22846 h -8.861423 z"
         inkscape:connector-curvature="0"
         style="fill:#c3c6c7;stroke-width:0.01977996" />
      <path
         id="path234"
         d="m 14.287498,288.13188 h 8.868105 v 8.21121 h -8.868105 z"
         inkscape:connector-curvature="0"
         style="fill:#e9eef2;stroke-width:0.02052802" />
      <path
         id="path236"
         d="m 14.287498,288.13188 h 8.868105 v 1.97069 h -8.868105 z"
         inkscape:connector-curvature="0"
         style="fill:#eb423f;stroke-width:0.02052802" />
      <path
         inkscape:connector-curvature="0"
         d="m 16.093964,288.13188 v -0.16423 a 0.16422416,0.16422416 0 0 0 -0.328448,0 v 0.6569 a 0.16440891,0.16440891 0 0 0 0.164224,0.16423 0.16422416,0.16422416 0 0 1 0,0.32844 0.49324726,0.49324726 0 0 1 -0.492672,-0.49267 v -0.6569 a 0.4926725,0.4926725 0 0 1 0.985345,0 v 0.16423 z"
         id="path238"
         style="fill:#6a7073;stroke-width:0.02052802" />
      <path
         inkscape:connector-curvature="0"
         d="m 17.407758,288.13188 v -0.16423 a 0.1642245,0.1642245 0 0 0 -0.328449,0 v 0.6569 a 0.16440891,0.16440891 0 0 0 0.164224,0.16423 0.16422416,0.16422416 0 0 1 0,0.32844 0.49324726,0.49324726 0 0 1 -0.492672,-0.49267 v -0.6569 a 0.4926725,0.4926725 0 0 1 0.985345,0 v 0.16423 z"
         id="path240"
         style="fill:#6a7073;stroke-width:0.02052802" />
      <path
         inkscape:connector-curvature="0"
         d="m 20.363792,288.13188 v -0.16423 a 0.16422416,0.16422416 0 0 0 -0.328448,0 v 0.6569 a 0.16440891,0.16440891 0 0 0 0.164224,0.16423 0.16422416,0.16422416 0 0 1 0,0.32844 0.49324726,0.49324726 0 0 1 -0.492672,-0.49267 v -0.6569 a 0.4926725,0.4926725 0 0 1 0.985345,0 v 0.16423 z"
         id="path242"
         style="fill:#6a7073;stroke-width:0.02052802" />
      <path
         inkscape:connector-curvature="0"
         d="m 21.677586,288.13188 v -0.16423 a 0.1642245,0.1642245 0 0 0 -0.328449,0 v 0.6569 a 0.16440891,0.16440891 0 0 0 0.164225,0.16423 0.16422416,0.16422416 0 0 1 0,0.32844 0.49324726,0.49324726 0 0 1 -0.492673,-0.49267 v -0.6569 a 0.4926725,0.4926725 0 0 1 0.985345,0 v 0.16423 z"
         id="path244"
         style="fill:#6a7073;stroke-width:0.02052802" />
      <rect
         y="290.93427"
         x="15.303297"
         height="0.79374999"
         width="0.8839488"
         id="rect4795"
         style="fill:#6a7073;fill-opacity:1;stroke-width:0.29520664" />
      <rect
         style="fill:#6a7073;fill-opacity:1;stroke-width:0.29520664"
         id="rect4797"
         width="0.8839488"
         height="0.79374999"
         x="16.317553"
         y="290.93427" />
      <rect
         y="290.93427"
         x="17.33181"
         height="0.79374999"
         width="0.8839488"
         id="rect4799"
         style="fill:#6a7073;fill-opacity:1;stroke-width:0.29520664" />
      <rect
         style="fill:#6a7073;fill-opacity:1;stroke-width:0.29520664"
         id="rect4801"
         width="0.8839488"
         height="0.79374999"
         x="18.346064"
         y="290.93427" />
      <rect
         y="290.93427"
         x="19.360319"
         height="0.79374999"
         width="0.8839488"
         id="rect4803"
         style="fill:#6a7073;fill-opacity:1;stroke-width:0.29520664" />
      <rect
         style="fill:#6a7073;fill-opacity:1;stroke-width:0.29520664"
         id="rect4805"
         width="0.8839488"
         height="0.79374999"
         x="20.374575"
         y="290.93427" />
      <rect
         y="290.93427"
         x="21.388832"
         height="0.79374999"
         width="0.8839488"
         id="rect4807"
         style="fill:#6a7073;fill-opacity:1;stroke-width:0.29520664" />
      <rect
         style="fill:#6a7073;fill-opacity:1;stroke-width:0.29520664"
         id="rect4818"
         width="0.8839488"
         height="0.79374999"
         x="15.303297"
         y="292.19955" />
      <rect
         y="292.19955"
         x="16.317553"
         height="0.79374999"
         width="0.8839488"
         id="rect4820"
         style="fill:#6a7073;fill-opacity:1;stroke-width:0.29520664" />
      <rect
         style="fill:#6a7073;fill-opacity:1;stroke-width:0.29520664"
         id="rect4822"
         width="0.8839488"
         height="0.79374999"
         x="17.33181"
         y="292.19955" />
      <rect
         y="292.19955"
         x="18.346064"
         height="0.79374999"
         width="0.8839488"
         id="rect4824"
         style="fill:#6a7073;fill-opacity:1;stroke-width:0.29520664" />
      <rect
         style="fill:#eb423f;fill-opacity:1;stroke-width:0.29520664"
         id="rect4826"
         width="0.8839488"
         height="0.79374999"
         x="19.360319"
         y="292.19955" />
      <rect
         y="292.19955"
         x="20.374575"
         height="0.79374999"
         width="0.8839488"
         id="rect4828"
         style="fill:#6a7073;fill-opacity:1;stroke-width:0.29520664" />
      <rect
         style="fill:#6a7073;fill-opacity:1;stroke-width:0.29520664"
         id="rect4830"
         width="0.8839488"
         height="0.79374999"
         x="21.388832"
         y="292.19955" />
      <rect
         y="293.46481"
         x="15.303297"
         height="0.79374999"
         width="0.8839488"
         id="rect4834"
         style="fill:#6a7073;fill-opacity:1;stroke-width:0.29520664" />
      <rect
         style="fill:#6a7073;fill-opacity:1;stroke-width:0.29520664"
         id="rect4836"
         width="0.8839488"
         height="0.79374999"
         x="16.317553"
         y="293.46481" />
      <rect
         y="293.46481"
         x="17.33181"
         height="0.79374999"
         width="0.8839488"
         id="rect4838"
         style="fill:#6a7073;fill-opacity:1;stroke-width:0.29520664" />
      <rect
         style="fill:#6a7073;fill-opacity:1;stroke-width:0.29520664"
         id="rect4840"
         width="0.8839488"
         height="0.79374999"
         x="18.346064"
         y="293.46481" />
      <rect
         y="293.46481"
         x="19.360319"
         height="0.79374999"
         width="0.8839488"
         id="rect4842"
         style="fill:#6a7073;fill-opacity:1;stroke-width:0.29520664" />
      <rect
         style="fill:#6a7073;fill-opacity:1;stroke-width:0.29520664"
         id="rect4844"
         width="0.8839488"
         height="0.79374999"
         x="20.374575"
         y="293.46481" />
      <rect
         y="293.46481"
         x="21.388832"
         height="0.79374999"
         width="0.8839488"
         id="rect4846"
         style="fill:#6a7073;fill-opacity:1;stroke-width:0.29520664" />
      <rect
         style="fill:#6a7073;fill-opacity:1;stroke-width:0.29520664"
         id="rect4850"
         width="0.8839488"
         height="0.79374999"
         x="15.303297"
         y="294.7301" />
      <rect
         y="294.7301"
         x="16.317553"
         height="0.79374999"
         width="0.8839488"
         id="rect4852"
         style="fill:#6a7073;fill-opacity:1;stroke-width:0.29520664" />
      <rect
         style="fill:#6a7073;fill-opacity:1;stroke-width:0.29520664"
         id="rect4854"
         width="0.8839488"
         height="0.79374999"
         x="17.33181"
         y="294.7301" />
      <rect
         y="294.7301"
         x="18.346064"
         height="0.79374999"
         width="0.8839488"
         id="rect4856"
         style="fill:#6a7073;fill-opacity:1;stroke-width:0.29520664" />
      <rect
         style="fill:#6a7073;fill-opacity:1;stroke-width:0.29520664"
         id="rect4858"
         width="0.8839488"
         height="0.79374999"
         x="19.360319"
         y="294.7301" />
      <rect
         y="294.7301"
         x="20.374575"
         height="0.79374999"
         width="0.8839488"
         id="rect4860"
         style="fill:#6a7073;fill-opacity:1;stroke-width:0.29520664" />
      <rect
         style="fill:#6a7073;fill-opacity:1;stroke-width:0.29520664"
         id="rect4862"
         width="0.8839488"
         height="0.79374999"
         x="21.388832"
         y="294.7301" />
    </g>
  </g>
</svg>
